<?xml version="1.0"?>
<svg xmlns="http://www.w3.org/2000/svg" xmlns:xlink="http://www.w3.org/1999/xlink" id="Gradient" viewBox="0 0 512 512" width="512" height="512"><defs><linearGradient id="linear-gradient" x1="256" y1="496" x2="256" y2="16" gradientUnits="userSpaceOnUse"><stop offset="0" stop-color="#12c2e9"/><stop offset="0.5" stop-color="#c471ed"/><stop offset="1" stop-color="#f64f59"/></linearGradient></defs><path d="M360,80a24,24,0,1,0,24,24A24.028,24.028,0,0,0,360,80Zm0,32a8,8,0,1,1,8-8A8.009,8.009,0,0,1,360,112Zm103.59,37.47L432,54.7V24a8,8,0,0,0-8-8H296a8,8,0,0,0-8,8V54.7L258.234,144H240V120a8,8,0,0,0-8-8H136V88a8,8,0,0,0-8-8H80a8,8,0,0,0-8,8v24H56a8,8,0,0,0-8,8V488a8,8,0,0,0,8,8H456a8,8,0,0,0,8-8V152a7.957,7.957,0,0,0-.415-2.529ZM448,253.39c-5.534,6.974-29.693,32.625-80.364,24.706a97.248,97.248,0,0,0-54.289,7.076,207.87,207.87,0,0,0-24.962-58.051l-.481-.769a51.942,51.942,0,0,1-7.9-27.56V192a23.992,23.992,0,0,0,22.624-32H448ZM280,160a8,8,0,0,1,0,16H216a8,8,0,0,1,0-16Zm-58.336,74.832A67.924,67.924,0,0,0,232,198.792V192h32v6.792a67.92,67.92,0,0,0,10.335,36.038l.48.77q3.8,6.081,7.119,12.4H214.066q3.323-6.314,7.12-12.4ZM275.1,144l26.668-80H418.233L444.9,144ZM304,32H416V48H304ZM88,96h32v16H88ZM64,128H224v16h-8a24,24,0,0,0,0,48v6.792a51.946,51.946,0,0,1-7.905,27.562l-.479.765A207.788,207.788,0,0,0,176,337.359v17.508a176.764,176.764,0,0,1-20.835,10.374C99.693,348.712,64,315.452,64,280ZM78.292,341.925c13.811,12.734,31.734,23.548,52.6,31.844A271.024,271.024,0,0,1,64,383.884V326.065A110.859,110.859,0,0,0,78.292,341.925ZM64,399.891c41.73-1.059,80.734-10.4,112-26.735V456a39.788,39.788,0,0,0,8.022,24H64ZM216,480a24.027,24.027,0,0,1-24-24V337.359a191.8,191.8,0,0,1,14.621-73.486A8.036,8.036,0,0,0,208,264h80a8.036,8.036,0,0,0,1.379-.127A191.8,191.8,0,0,1,304,337.359V456a24.028,24.028,0,0,1-24,24Zm95.978,0A39.788,39.788,0,0,0,320,456V337.359a208.227,208.227,0,0,0-3.168-36.2c15.7-7.366,31.941-9.815,48.333-7.251a138.3,138.3,0,0,0,21.381,1.722c29.435,0,49.371-10.433,61.454-19.967V480ZM144,255.98q.6.02,1.192.02a31.323,31.323,0,0,0,21.931-8.521A28.57,28.57,0,0,0,176,226.667c0-6.812-3.045-12.134-5.269-16.02a102.943,102.943,0,0,0-7.22-10.475,91.625,91.625,0,0,1-6.7-9.714l-5.839-10.38a8,8,0,0,0-13.946,0l-5.839,10.38a91.625,91.625,0,0,1-6.7,9.714,102.943,102.943,0,0,0-7.22,10.475c-2.224,3.886-5.269,9.208-5.269,16.02a28.57,28.57,0,0,0,8.877,20.812A31.513,31.513,0,0,0,144,255.98Zm-12.844-37.387a90.128,90.128,0,0,1,6.122-8.806c2.294-3.051,4.653-6.188,6.722-9.558,2.069,3.37,4.428,6.507,6.722,9.558a90.128,90.128,0,0,1,6.122,8.806c1.788,3.126,3.156,5.7,3.156,8.074a12.712,12.712,0,0,1-3.947,9.26,15.66,15.66,0,0,1-11.711,4.054q-.171-.006-.342-.006t-.342.006a15.634,15.634,0,0,1-11.711-4.054,12.712,12.712,0,0,1-3.947-9.26C128,224.3,129.368,221.719,131.156,218.593Z" style="fill:url(#linear-gradient)"/></svg>
