<?xml version="1.0"?>
<svg xmlns="http://www.w3.org/2000/svg" xmlns:xlink="http://www.w3.org/1999/xlink" id="Gradient" viewBox="0 0 512 512" width="512" height="512"><defs><linearGradient id="linear-gradient" x1="256" y1="504" x2="256" y2="8" gradientUnits="userSpaceOnUse"><stop offset="0" stop-color="#12c2e9"/><stop offset="0.5" stop-color="#c471ed"/><stop offset="1" stop-color="#f64f59"/></linearGradient></defs><path d="M417.455,211.687A56.07,56.07,0,0,1,400.234,176H408a8,8,0,0,0,8-8V152a24.028,24.028,0,0,0-24-24H344a23.976,23.976,0,0,0-19.432,9.94L264,107.1V104h16c13.233,0,24-10.114,24-22.546V45.091C304,24.639,286.056,8,264,8H168c-22.056,0-40,16.639-40,37.091V81.454C128,93.886,138.767,104,152,104h16v3.1L95.09,144.225A40.119,40.119,0,0,0,72,180.475V192a23.9,23.9,0,0,0,6.131,16A23.9,23.9,0,0,0,72,224v16a23.9,23.9,0,0,0,6.131,16A23.9,23.9,0,0,0,72,272v16a23.9,23.9,0,0,0,6.131,16A23.9,23.9,0,0,0,72,320v16a23.9,23.9,0,0,0,6.131,16A23.9,23.9,0,0,0,72,368v16a23.9,23.9,0,0,0,6.131,16A23.9,23.9,0,0,0,72,416v16a23.9,23.9,0,0,0,6.131,16A23.9,23.9,0,0,0,72,464a40.045,40.045,0,0,0,40,40H400a40.045,40.045,0,0,0,40-40V392a23.9,23.9,0,0,0-6.131-16A23.9,23.9,0,0,0,440,360V344a23.9,23.9,0,0,0-6.131-16A23.9,23.9,0,0,0,440,312V296a23.9,23.9,0,0,0-6.131-16A23.9,23.9,0,0,0,440,264,71.3,71.3,0,0,0,417.455,211.687ZM424,264a8.009,8.009,0,0,1-8,8H320a8.009,8.009,0,0,1-8-8,55.462,55.462,0,0,1,17.535-40.687A70.834,70.834,0,0,0,336.254,216h63.492a70.854,70.854,0,0,0,6.72,7.314A55.461,55.461,0,0,1,424,264Zm0,32v16a8.009,8.009,0,0,1-8,8H320a8.009,8.009,0,0,1-8-8V296a8.009,8.009,0,0,1,8-8h96A8.009,8.009,0,0,1,424,296Zm0,48v16a8.009,8.009,0,0,1-8,8H320a8.009,8.009,0,0,1-8-8V344a8.009,8.009,0,0,1,8-8h96A8.009,8.009,0,0,1,424,344ZM296,440H96a8.009,8.009,0,0,1-8-8V416a8.009,8.009,0,0,1,8-8H296ZM88,384V368a8.009,8.009,0,0,1,8-8H296a23.9,23.9,0,0,0,6.131,16A23.9,23.9,0,0,0,296,392H96A8.009,8.009,0,0,1,88,384Zm0-48V320a8.009,8.009,0,0,1,8-8H296a23.9,23.9,0,0,0,6.131,16A23.9,23.9,0,0,0,296,344H96A8.009,8.009,0,0,1,88,336Zm0-48V272a8.009,8.009,0,0,1,8-8H296a23.9,23.9,0,0,0,6.131,16A23.9,23.9,0,0,0,296,296H96A8.009,8.009,0,0,1,88,288Zm0-48V224a8.009,8.009,0,0,1,8-8H314.365a70.968,70.968,0,0,0-16.581,32H96A8.009,8.009,0,0,1,88,240Zm302.105-40H345.9a72.214,72.214,0,0,0,5.935-24h32.34A72.214,72.214,0,0,0,390.105,200ZM336,152a8.009,8.009,0,0,1,8-8h48a8.009,8.009,0,0,1,8,8v8H336ZM256,72H176V64a8.009,8.009,0,0,1,8-8h64a8.009,8.009,0,0,1,8,8ZM184,88h64v16H184Zm-32,0c-4.411,0-8-2.937-8-6.546V45.091C144,33.461,154.767,24,168,24h96c13.233,0,24,9.461,24,21.091V81.454c0,3.609-3.589,6.546-8,6.546H264a8,8,0,0,0,8-8V64a24.028,24.028,0,0,0-24-24H184a24.028,24.028,0,0,0-24,24V80a8,8,0,0,0,8,8ZM88,180.475a24.071,24.071,0,0,1,13.942-21.791c.094-.043.187-.088.278-.135L177.92,120h76.16L320,153.569V168a8,8,0,0,0,8,8h7.766a56.225,56.225,0,0,1-7.841,24H96a8.009,8.009,0,0,1-8-8ZM88,464a8.009,8.009,0,0,1,8-8H296v8a39.788,39.788,0,0,0,8.022,24H112A24.028,24.028,0,0,1,88,464Zm336,0a24.028,24.028,0,0,1-24,24H336a24.028,24.028,0,0,1-24-24V392a8.009,8.009,0,0,1,8-8h96a8.009,8.009,0,0,1,8,8Z" style="fill:url(#linear-gradient)"/></svg>
